<?xml version="1.0" encoding="UTF-8" standalone="no"?>
<!-- Created with Inkscape (http://www.inkscape.org/) -->

<svg
   width="210mm"
   height="297mm"
   viewBox="0 0 210 297"
   version="1.1"
   id="svg1"
   xml:space="preserve"
   sodipodi:docname="icon.svg"
   inkscape:version="1.3.2 (091e20ef0f, 2023-11-25)"
   xmlns:inkscape="http://www.inkscape.org/namespaces/inkscape"
   xmlns:sodipodi="http://sodipodi.sourceforge.net/DTD/sodipodi-0.dtd"
   xmlns="http://www.w3.org/2000/svg"
   xmlns:svg="http://www.w3.org/2000/svg"><sodipodi:namedview
     id="namedview1"
     pagecolor="#ffffff"
     bordercolor="#000000"
     borderopacity="0.25"
     inkscape:showpageshadow="2"
     inkscape:pageopacity="0.0"
     inkscape:pagecheckerboard="0"
     inkscape:deskcolor="#d1d1d1"
     inkscape:document-units="mm"
     inkscape:zoom="0.61557941"
     inkscape:cx="397.18678"
     inkscape:cy="561.25984"
     inkscape:window-width="1504"
     inkscape:window-height="931"
     inkscape:window-x="0"
     inkscape:window-y="0"
     inkscape:window-maximized="1"
     inkscape:current-layer="layer1" /><defs
     id="defs1" /><g
     inkscape:label="Layer 1"
     inkscape:groupmode="layer"
     id="layer1"><path
       style="fill:#777777;stroke-width:1.1159;fill-opacity:1"
       d="M 16.696744,260.71632 C 13.735595,259.61033 11.279403,257.12106 9.8166788,253.74359 9.2538006,252.44389 9.2416481,250.56133 9.1594313,151.92854 9.1005499,81.287419 9.1702918,50.869517 9.3940525,49.524957 10.177812,44.816523 13.246146,41.431652 17.83404,40.21428 c 2.283383,-0.605882 129.64682,-0.586962 131.98495,0.01961 2.86957,0.74444 4.38758,1.862119 10.06019,7.407132 3.01421,2.946394 6.74028,6.543961 8.28016,7.994595 l 2.79979,2.637515 2.53246,0.178736 c 2.86712,0.202357 4.41941,0.609625 6.976,1.830251 1.50222,0.717232 3.3707,2.419163 12.06828,10.992605 9.40609,9.271835 10.39009,10.335186 11.44485,12.36786 3.34288,6.442185 2.95458,14.86714 -0.95015,20.615318 -0.49473,0.72831 -6.0404,6.45023 -12.32372,12.71539 -10.31462,10.28481 -11.61123,11.47803 -13.34974,12.28525 -2.31818,1.07637 -4.60236,1.20072 -6.29644,0.34279 l -1.08946,-0.55176 -14.02967,14.01429 c -7.71633,7.70785 -19.68506,19.70499 -26.59718,26.66029 -6.91213,6.95531 -19.32041,19.40264 -27.57394,27.66074 -8.253547,8.2581 -15.580598,15.65776 -16.28234,16.4437 -0.701743,0.78594 -1.613951,1.56243 -2.027128,1.72553 -1.483953,0.58579 -12.842885,4.49125 -25.931291,8.91579 -7.331841,2.47853 -13.913931,4.71611 -14.626868,4.97238 -1.701795,0.61177 -1.928382,0.59333 -2.898841,-0.23587 -1.131327,-0.96664 -1.037092,-2.10194 0.605805,-7.29854 0.732306,-2.31634 1.88077,-6.1316 2.552141,-8.47835 0.671369,-2.34674 1.474351,-5.06132 1.784405,-6.03239 0.310053,-0.97107 1.574647,-5.07604 2.810208,-9.12216 1.235561,-4.04611 2.770556,-9.0118 3.411098,-11.03486 l 1.164621,-3.6783 11.640139,-11.62339 c 6.402076,-6.39287 19.235789,-19.29844 28.519362,-28.67906 9.283569,-9.38063 21.281279,-21.47744 26.661569,-26.88182 l 9.78233,-9.82615 5.47382,5.31183 5.47381,5.31182 -8.74589,8.76955 c -4.81024,4.82324 -14.56125,14.59595 -21.66891,21.71712 -12.559988,12.58386 -30.186227,30.34901 -37.517164,37.81282 -3.128707,3.18541 -3.543089,3.71772 -3.092502,3.97255 1.186837,0.67123 2.673932,2.48955 2.865464,3.50371 0.109836,0.58155 0.334586,1.05737 0.499454,1.05737 0.164869,0 8.251643,-7.97821 17.970609,-17.72935 9.718972,-9.75115 24.022079,-24.08545 31.784689,-31.85399 7.76262,-7.76855 15.95393,-16.0116 18.20292,-18.31788 2.249,-2.30629 4.17937,-4.19325 4.28972,-4.19325 0.11039,0 2.85569,2.57825 6.10074,5.72943 3.24504,3.15119 5.96674,5.69922 6.04821,5.6623 0.0815,-0.0369 2.14636,-2.08994 4.58867,-4.56224 l 4.44056,-4.49508 -5.03303,-4.92224 c -5.60168,-5.47838 -15.40684,-14.95476 -18.86384,-18.2313 -1.99426,-1.89015 -2.38117,-2.133717 -3.39337,-2.136163 -1.75236,-0.0044 -3.96555,-1.400096 -4.77613,-3.012317 -0.82241,-1.635758 -0.86816,-4.008843 -0.10928,-5.66821 0.64546,-1.41133 2.31839,-2.937898 3.91503,-3.57249 l 1.16098,-0.461441 V 69.5029 52.761852 H 81.658181 c -62.571432,0 -58.143644,-0.135192 -58.95056,1.7999 -0.324943,0.779258 -0.397158,17.637732 -0.41202,96.185658 l -0.01803,95.2408 0.74059,1.08763 c 0.477253,0.70089 1.10926,1.19486 1.777415,1.38916 0.698558,0.20316 23.523926,0.27339 69.961896,0.21526 l 68.925078,-0.0863 0.80262,-0.73566 c 1.7107,-1.56797 1.61472,1.42932 1.61787,-50.53025 l 0.003,-47.90077 0.70142,-1.47132 c 0.88149,-1.84904 2.32642,-3.22747 3.99686,-3.8129 1.6362,-0.57344 2.54485,-0.5716 4.25932,0.009 1.64395,0.55641 2.78034,1.61036 3.52841,3.27241 0.53624,1.1914 0.55499,3.01179 0.54589,52.97993 -0.006,28.46038 -0.12285,52.13896 -0.26147,52.61908 -0.9126,3.16087 -3.24394,5.89893 -6.21203,7.29578 l -1.97252,0.92831 -76.132661,0.0575 -76.132646,0.0575 z m 53.200768,-50.00449 c 4.032513,-1.32885 7.331841,-2.49986 7.331841,-2.60223 0,-0.21421 -15.606668,-15.33039 -16.750825,-16.22439 -0.417064,-0.32588 -0.802031,-0.54431 -0.855481,-0.4854 -0.08131,0.0896 -4.36993,13.78182 -4.797425,15.31666 -0.09277,0.33309 0.861091,1.52703 2.899523,3.62931 2.822452,2.91085 3.101672,3.1205 3.939153,2.95753 0.495755,-0.0964 4.200702,-1.26263 8.233214,-2.59148 z M 175.83909,114.56527 c 3.05443,-3.2801 3.05012,-3.25875 1.01093,-5.01191 -0.94807,-0.81509 -9.16486,-8.69066 -22.16613,-21.24565 l -2.97353,-2.871458 -2.95119,2.943375 -2.9512,2.943375 4.14731,4.054755 c 10.93706,10.692983 22.80304,22.121993 22.96778,22.121993 0.10088,0 1.41311,-1.32052 2.91603,-2.93448 z m 15.9701,-16.781154 c 0.72041,-1.450066 0.80407,-1.940558 0.80407,-4.7144 0,-2.905553 -0.0599,-3.216819 -0.97403,-5.06133 -0.84487,-1.704733 -1.84668,-2.811513 -7.55403,-8.345561 -6.95263,-6.741528 -9.04823,-8.374324 -11.4968,-8.957815 -2.0978,-0.499905 -5.70602,-0.242243 -7.45946,0.532679 -1.44596,0.639028 -4.95351,3.699747 -4.95351,4.322475 0,0.333857 12.39906,12.641665 22.6516,22.484868 l 5.02251,4.822008 1.57778,-1.73224 c 0.86779,-0.95273 1.93962,-2.460543 2.38187,-3.350684 z m -33.72071,-28.029546 3.11563,-3.164307 -5.32509,-5.295758 c -2.9288,-2.912668 -5.42647,-5.295759 -5.55035,-5.295759 -0.24937,0 -0.31815,21.290867 -0.0695,21.537776 0.0856,0.08506 1.18125,-0.919113 2.43472,-2.231495 1.25347,-1.312382 3.68107,-3.810088 5.39466,-5.550457 z m -57.69686,148.07746 c -0.35658,-0.33001 -0.648332,-0.76741 -0.648332,-0.97202 0,-0.20461 1.578692,-1.92089 3.508222,-3.81395 l 3.50822,-3.44194 20.56096,0.0141 c 18.74279,0.0129 20.65185,0.0584 21.58902,0.51496 1.14619,0.55836 2.36617,2.42305 2.37376,3.62822 0.007,1.02838 -0.69221,2.64152 -1.43224,3.30679 -1.48227,1.33249 -1.57291,1.33723 -25.8348,1.35088 -22.7224,0.0128 -22.98365,0.007 -23.62481,-0.58708 z m 18.99666,-17.65761 c -0.35594,-0.13628 -0.79575,-0.5236 -0.97737,-0.86069 -0.44214,-0.82064 0.1001,-1.54898 3.69446,-4.96231 l 2.8404,-2.69735 11.61605,0.001 c 11.06849,0.001 11.66156,0.0287 12.58153,0.58584 2.92818,1.77345 2.79462,5.63755 -0.25435,7.35817 l -1.30361,0.73565 -13.77497,0.0437 c -7.57623,0.024 -14.06619,-0.0678 -14.42214,-0.20411 z m 18.43813,-19.47357 c -0.25364,-0.3597 -0.46116,-0.84101 -0.46116,-1.06956 0,-0.62468 5.33869,-5.93956 6.43362,-6.40492 1.369,-0.58184 3.88835,-0.5128 5.12421,0.14045 1.50041,0.79307 2.43032,2.50757 2.23139,4.1141 -0.0869,0.70163 -0.44536,1.67664 -0.79666,2.1667 -1.05468,1.47131 -2.0687,1.70723 -7.33777,1.70723 -4.55459,0 -4.74982,-0.0246 -5.19363,-0.654 z m -97.491114,-9.89916 c -2.581248,-1.56361 -2.85094,-4.70295 -0.584891,-6.80837 0.771874,-0.71715 0.920174,-0.73796 5.89727,-0.82753 4.684883,-0.0843 5.163757,-0.0451 5.812801,0.47704 0.511464,0.4114 0.707313,0.86591 0.707313,1.64148 0,0.9022 -0.256441,1.33291 -1.614486,2.71169 -0.887967,0.90152 -2.171729,2.02496 -2.852805,2.49652 -1.140298,0.78951 -1.445131,0.8573 -3.851067,0.85629 -2.022198,-8.6e-4 -2.816487,-0.12452 -3.514135,-0.54712 z m 0.166701,-19.38858 c -2.171202,-1.08358 -2.924995,-3.44113 -1.800386,-5.63087 1.197557,-2.33178 0.471692,-2.22979 16.544188,-2.32452 l 14.305354,-0.0843 0.87674,0.8709 c 0.644683,0.64039 0.87674,1.1495 0.87674,1.92346 0,0.89484 -0.268006,1.31878 -1.788527,2.82918 -3.182072,3.16088 -1.930331,2.92929 -15.837514,2.93004 -10.973426,5.7e-4 -12.245175,-0.049 -13.176595,-0.51387 z m 1.580492,-17.61927 c -0.139334,-0.032 -0.595345,-0.13233 -1.013356,-0.22299 -1.552211,-0.3367 -2.942929,-2.27199 -2.942929,-4.09531 0,-1.28733 1.062918,-2.86005 2.375793,-3.51527 0.95127,-0.47475 2.589473,-0.51453 21.203513,-0.51496 22.299414,-5.1e-4 21.444879,-0.0711 22.675188,1.87272 0.81828,1.29282 0.634286,3.7181 -0.362479,4.77796 -1.526097,1.62271 -0.760061,1.56472 -21.983202,1.66393 -10.834555,0.0506 -19.813193,0.066 -19.952528,0.0339 z m -1.576864,-30.37202 c -1.606591,-0.85672 -2.231303,-1.89963 -2.231303,-3.724996 0,-1.838281 0.666392,-2.952904 2.242828,-3.751402 0.95071,-0.481549 3.345683,-0.514525 37.393444,-0.514959 39.596776,-4.89e-4 37.307596,-0.09643 38.667416,1.620774 1.43531,1.812546 0.99538,4.401113 -1.00562,5.917263 l -1.1192,0.84801 -36.460136,0.0765 c -35.072171,0.0736 -36.499244,0.0557 -37.487429,-0.47125 z m 0.731056,-18.013161 c -1.975044,-0.582916 -3.358712,-2.843756 -2.977093,-4.864411 0.258283,-1.367603 1.739817,-2.981245 3.075522,-3.349766 0.709805,-0.195835 13.447479,-0.300339 36.73818,-0.30141 39.25529,-0.0018 36.76853,-0.117032 38.37383,1.778058 1.58553,1.871743 1.04386,4.656282 -1.19932,6.165406 l -1.0935,0.735657 -36.014457,0.04938 c -20.386661,0.02795 -36.400092,-0.06444 -36.903162,-0.212914 z"
       id="path1" /></g></svg>
